<mxfile host="Electron" modified="2023-08-10T12:25:31.684Z" agent="Mozilla/5.0 (X11; Linux x86_64) AppleWebKit/537.36 (KHTML, like Gecko) draw.io/21.6.5 Chrome/114.0.5735.243 Electron/25.3.1 Safari/537.36" etag="o-HQvbcCQX1LCcnEY1PI" version="21.6.5" type="device">
  <diagram name="Page-1" id="BA222M-PlbTMDPkgESxL">
    <mxGraphModel dx="768" dy="510" grid="1" gridSize="10" guides="1" tooltips="1" connect="1" arrows="1" fold="1" page="1" pageScale="1" pageWidth="850" pageHeight="1100" math="0" shadow="0">
      <root>
        <mxCell id="0" />
        <mxCell id="1" parent="0" />
        <mxCell id="qXs6_oQp6hY6UImzRtQK-1" value="" style="edgeStyle=orthogonalEdgeStyle;rounded=0;orthogonalLoop=1;jettySize=auto;html=1;" edge="1" parent="1" source="qXs6_oQp6hY6UImzRtQK-2">
          <mxGeometry relative="1" as="geometry">
            <mxPoint x="430" y="170" as="targetPoint" />
          </mxGeometry>
        </mxCell>
        <mxCell id="qXs6_oQp6hY6UImzRtQK-2" value="Cancel Close Request" style="verticalLabelPosition=bottom;verticalAlign=top;html=1;shape=mxgraph.flowchart.on-page_reference;labelBackgroundColor=none;fillColor=#A8DADC;strokeColor=#457B9D;fontColor=#1D3557;" vertex="1" parent="1">
          <mxGeometry x="400" y="30" width="60" height="60" as="geometry" />
        </mxCell>
        <mxCell id="qXs6_oQp6hY6UImzRtQK-3" value="" style="endArrow=none;html=1;rounded=0;exitX=0.5;exitY=0;exitDx=0;exitDy=0;exitPerimeter=0;labelBackgroundColor=none;strokeColor=#457B9D;fontColor=default;" edge="1" parent="1">
          <mxGeometry width="50" height="50" relative="1" as="geometry">
            <mxPoint x="430" y="170" as="sourcePoint" />
            <mxPoint x="430" y="90" as="targetPoint" />
          </mxGeometry>
        </mxCell>
        <mxCell id="qXs6_oQp6hY6UImzRtQK-4" value="Is Close Request&lt;br&gt;Filled&amp;nbsp;" style="strokeWidth=2;html=1;shape=mxgraph.flowchart.decision;whiteSpace=wrap;fillColor=#A8DADC;strokeColor=#457B9D;labelBackgroundColor=none;fontColor=#1D3557;" vertex="1" parent="1">
          <mxGeometry x="380" y="170" width="100" height="100" as="geometry" />
        </mxCell>
        <mxCell id="qXs6_oQp6hY6UImzRtQK-5" value="" style="endArrow=none;html=1;rounded=0;entryX=0.5;entryY=1;entryDx=0;entryDy=0;entryPerimeter=0;labelBackgroundColor=none;strokeColor=#457B9D;fontColor=default;" edge="1" parent="1" source="qXs6_oQp6hY6UImzRtQK-7">
          <mxGeometry width="50" height="50" relative="1" as="geometry">
            <mxPoint x="379.42999999999995" y="270" as="sourcePoint" />
            <mxPoint x="379.42999999999995" y="220" as="targetPoint" />
          </mxGeometry>
        </mxCell>
        <mxCell id="qXs6_oQp6hY6UImzRtQK-6" value="Yes" style="edgeLabel;html=1;align=center;verticalAlign=middle;resizable=0;points=[];labelBackgroundColor=none;fontColor=#1D3557;" vertex="1" connectable="0" parent="qXs6_oQp6hY6UImzRtQK-5">
          <mxGeometry x="0.2229" y="2" relative="1" as="geometry">
            <mxPoint as="offset" />
          </mxGeometry>
        </mxCell>
        <mxCell id="qXs6_oQp6hY6UImzRtQK-7" value="Fill Close&amp;nbsp;" style="verticalLabelPosition=middle;verticalAlign=middle;html=1;shape=trapezoid;perimeter=trapezoidPerimeter;whiteSpace=wrap;size=0.23;arcSize=10;flipV=1;labelPosition=center;align=center;strokeColor=#457B9D;fontColor=#1D3557;fillColor=#A8DADC;" vertex="1" parent="1">
          <mxGeometry x="240" y="200" width="100" height="40" as="geometry" />
        </mxCell>
        <mxCell id="qXs6_oQp6hY6UImzRtQK-8" value="" style="endArrow=none;html=1;rounded=0;entryX=0;entryY=0.5;entryDx=0;entryDy=0;entryPerimeter=0;labelBackgroundColor=none;strokeColor=#457B9D;fontColor=default;" edge="1" parent="1">
          <mxGeometry width="50" height="50" relative="1" as="geometry">
            <mxPoint x="480" y="219.71000000000004" as="sourcePoint" />
            <mxPoint x="530" y="219.71000000000004" as="targetPoint" />
          </mxGeometry>
        </mxCell>
        <mxCell id="qXs6_oQp6hY6UImzRtQK-9" value="No" style="edgeLabel;html=1;align=center;verticalAlign=middle;resizable=0;points=[];labelBackgroundColor=none;fontColor=#1D3557;" vertex="1" connectable="0" parent="qXs6_oQp6hY6UImzRtQK-8">
          <mxGeometry x="-0.181" y="1" relative="1" as="geometry">
            <mxPoint as="offset" />
          </mxGeometry>
        </mxCell>
        <mxCell id="qXs6_oQp6hY6UImzRtQK-10" value="Accept Cancel" style="verticalLabelPosition=middle;verticalAlign=middle;html=1;shape=trapezoid;perimeter=trapezoidPerimeter;whiteSpace=wrap;size=0.23;arcSize=10;flipV=1;labelPosition=center;align=center;strokeColor=#457B9D;fontColor=#1D3557;fillColor=#A8DADC;" vertex="1" parent="1">
          <mxGeometry x="510" y="200" width="130" height="40" as="geometry" />
        </mxCell>
      </root>
    </mxGraphModel>
  </diagram>
</mxfile>
